STARTFONT 2.1
FONT -FontForge-Monaco-Book-R-Normal--10-100-75-75-P-59-ISO10646-1
SIZE 10 75 75
FONTBOUNDINGBOX 7 13 -1 -3
COMMENT "Generated by fontforge, http://fontforge.sourceforge.net"
COMMENT "(c) 1990-2008 Apple Inc. (c) 1990-97 Type Solutions Inc. (c) 1990-97 The Font Bureau Inc.  TrueType outline design of Monaco typeface created by Kris Holmes and Charles Bigelow."
STARTPROPERTIES 41
FOUNDRY "FontForge"
FAMILY_NAME "Monaco"
WEIGHT_NAME "Book"
SLANT "R"
SETWIDTH_NAME "Normal"
ADD_STYLE_NAME ""
PIXEL_SIZE 10
POINT_SIZE 100
RESOLUTION_X 75
RESOLUTION_Y 75
SPACING "P"
AVERAGE_WIDTH 59
CHARSET_REGISTRY "ISO10646"
CHARSET_ENCODING "1"
FONTNAME_REGISTRY ""
CHARSET_COLLECTIONS "ISO8859-2 ISO8859-5 ISO8859-9 ISO8859-4 ISO10646-1"
FONT_NAME "Monaco"
FACE_NAME "Monaco"
COPYRIGHT "(c) 1990-2008 Apple Inc. (c) 1990-97 Type Solutions Inc. (c) 1990-97 The Font Bureau Inc.  TrueType outline design of Monaco typeface created by Kris Holmes and Charles Bigelow."
FONT_VERSION "17.0d1e5"
FONT_ASCENT 8
FONT_DESCENT 2
UNDERLINE_POSITION -1
UNDERLINE_THICKNESS 1
X_HEIGHT 5
CAP_HEIGHT 7
DEFAULT_CHAR 1
RAW_ASCENT 799
RAW_DESCENT 200
NORM_SPACE 6
RELATIVE_WEIGHT 40
RELATIVE_SETWIDTH 50
SUPERSCRIPT_X 0
SUPERSCRIPT_Y 2
SUPERSCRIPT_SIZE 3
SUBSCRIPT_X 0
SUBSCRIPT_Y 0
SUBSCRIPT_SIZE 3
FIGURE_WIDTH 6
AVG_LOWERCASE_WIDTH 60
AVG_UPPERCASE_WIDTH 60
ENDPROPERTIES
CHARS 349
STARTCHAR .null
ENCODING 0
SWIDTH 0 0
DWIDTH 0 0
BBX 0 0 0 0
BITMAP
ENDCHAR
STARTCHAR .null.dup1
ENCODING 8
SWIDTH 0 0
DWIDTH 0 0
BBX 0 0 0 0
BITMAP
ENDCHAR
STARTCHAR nonmarkingreturn
ENCODING 9
SWIDTH 600 0
DWIDTH 6 0
BBX 0 0 0 0
BITMAP
ENDCHAR
STARTCHAR nonmarkingreturn.dup2
ENCODING 10
SWIDTH 600 0
DWIDTH 6 0
BBX 0 0 0 0
BITMAP
ENDCHAR
STARTCHAR nonmarkingreturn.dup3
ENCODING 13
SWIDTH 600 0
DWIDTH 6 0
BBX 0 0 0 0
BITMAP
ENDCHAR
STARTCHAR .null.dup4
ENCODING 29
SWIDTH 0 0
DWIDTH 0 0
BBX 0 0 0 0
BITMAP
ENDCHAR
STARTCHAR space
ENCODING 32
SWIDTH 600 0
DWIDTH 6 0
BBX 0 0 0 0
BITMAP
ENDCHAR
STARTCHAR exclam
ENCODING 33
SWIDTH 600 0
DWIDTH 6 0
BBX 1 8 2 0
BITMAP
80
80
80
80
80
80
00
80
ENDCHAR
STARTCHAR quotedbl
ENCODING 34
SWIDTH 600 0
DWIDTH 6 0
BBX 3 3 1 5
BITMAP
A0
A0
A0
ENDCHAR
STARTCHAR numbersign
ENCODING 35
SWIDTH 600 0
DWIDTH 6 0
BBX 6 8 0 0
BITMAP
28
28
FC
28
28
FC
50
50
ENDCHAR
STARTCHAR dollar
ENCODING 36
SWIDTH 600 0
DWIDTH 6 0
BBX 5 10 0 -1
BITMAP
20
70
A8
A0
60
30
28
A8
70
20
ENDCHAR
STARTCHAR percent
ENCODING 37
SWIDTH 600 0
DWIDTH 6 0
BBX 6 8 0 0
BITMAP
44
A4
A8
50
28
54
94
88
ENDCHAR
STARTCHAR ampersand
ENCODING 38
SWIDTH 600 0
DWIDTH 6 0
BBX 6 8 0 0
BITMAP
60
90
80
40
A0
94
88
74
ENDCHAR
STARTCHAR quotesingle
ENCODING 39
SWIDTH 600 0
DWIDTH 6 0
BBX 1 3 3 5
BITMAP
80
80
80
ENDCHAR
STARTCHAR parenleft
ENCODING 40
SWIDTH 600 0
DWIDTH 6 0
BBX 4 12 1 -3
BITMAP
10
20
40
40
80
80
80
80
40
40
20
10
ENDCHAR
STARTCHAR parenright
ENCODING 41
SWIDTH 600 0
DWIDTH 6 0
BBX 4 12 1 -3
BITMAP
80
40
20
20
10
10
10
10
20
20
40
80
ENDCHAR
STARTCHAR asterisk
ENCODING 42
SWIDTH 600 0
DWIDTH 6 0
BBX 5 6 0 2
BITMAP
20
A8
70
70
A8
20
ENDCHAR
STARTCHAR plus
ENCODING 43
SWIDTH 600 0
DWIDTH 6 0
BBX 5 5 0 0
BITMAP
20
20
F8
20
20
ENDCHAR
STARTCHAR comma
ENCODING 44
SWIDTH 600 0
DWIDTH 6 0
BBX 2 4 2 -2
BITMAP
C0
C0
40
80
ENDCHAR
STARTCHAR hyphen
ENCODING 45
SWIDTH 600 0
DWIDTH 6 0
BBX 5 1 0 2
BITMAP
F8
ENDCHAR
STARTCHAR period
ENCODING 46
SWIDTH 600 0
DWIDTH 6 0
BBX 2 2 2 0
BITMAP
C0
C0
ENDCHAR
STARTCHAR slash
ENCODING 47
SWIDTH 600 0
DWIDTH 6 0
BBX 5 9 0 -1
BITMAP
08
08
10
10
20
40
40
80
80
ENDCHAR
STARTCHAR zero
ENCODING 48
SWIDTH 600 0
DWIDTH 6 0
BBX 5 8 0 0
BITMAP
70
88
98
A8
C8
88
88
70
ENDCHAR
STARTCHAR one
ENCODING 49
SWIDTH 600 0
DWIDTH 6 0
BBX 5 8 0 0
BITMAP
20
60
A0
20
20
20
20
F8
ENDCHAR
STARTCHAR two
ENCODING 50
SWIDTH 600 0
DWIDTH 6 0
BBX 5 8 0 0
BITMAP
70
88
08
10
20
40
80
F8
ENDCHAR
STARTCHAR three
ENCODING 51
SWIDTH 600 0
DWIDTH 6 0
BBX 5 8 0 0
BITMAP
70
88
08
30
08
08
88
70
ENDCHAR
STARTCHAR four
ENCODING 52
SWIDTH 600 0
DWIDTH 6 0
BBX 5 8 0 0
BITMAP
10
30
50
90
F8
10
10
10
ENDCHAR
STARTCHAR five
ENCODING 53
SWIDTH 600 0
DWIDTH 6 0
BBX 5 8 0 0
BITMAP
F8
80
80
F0
88
08
08
F0
ENDCHAR
STARTCHAR six
ENCODING 54
SWIDTH 600 0
DWIDTH 6 0
BBX 5 8 0 0
BITMAP
30
40
80
F0
88
88
88
70
ENDCHAR
STARTCHAR seven
ENCODING 55
SWIDTH 600 0
DWIDTH 6 0
BBX 5 8 0 0
BITMAP
F8
88
08
10
10
20
20
20
ENDCHAR
STARTCHAR eight
ENCODING 56
SWIDTH 600 0
DWIDTH 6 0
BBX 5 8 0 0
BITMAP
70
88
88
70
88
88
88
70
ENDCHAR
STARTCHAR nine
ENCODING 57
SWIDTH 600 0
DWIDTH 6 0
BBX 5 8 0 0
BITMAP
70
88
88
88
78
08
10
60
ENDCHAR
STARTCHAR colon
ENCODING 58
SWIDTH 600 0
DWIDTH 6 0
BBX 2 6 2 0
BITMAP
C0
C0
00
00
C0
C0
ENDCHAR
STARTCHAR semicolon
ENCODING 59
SWIDTH 600 0
DWIDTH 6 0
BBX 2 8 2 -2
BITMAP
C0
C0
00
00
C0
C0
40
80
ENDCHAR
STARTCHAR less
ENCODING 60
SWIDTH 600 0
DWIDTH 6 0
BBX 6 5 0 0
BITMAP
0C
30
C0
30
0C
ENDCHAR
STARTCHAR equal
ENCODING 61
SWIDTH 600 0
DWIDTH 6 0
BBX 5 3 0 1
BITMAP
F8
00
F8
ENDCHAR
STARTCHAR greater
ENCODING 62
SWIDTH 600 0
DWIDTH 6 0
BBX 6 5 0 0
BITMAP
C0
30
0C
30
C0
ENDCHAR
STARTCHAR question
ENCODING 63
SWIDTH 600 0
DWIDTH 6 0
BBX 5 8 0 0
BITMAP
70
88
08
10
20
20
00
20
ENDCHAR
STARTCHAR at
ENCODING 64
SWIDTH 600 0
DWIDTH 6 0
BBX 5 8 0 0
BITMAP
30
48
98
A8
A8
98
40
38
ENDCHAR
STARTCHAR A
ENCODING 65
SWIDTH 600 0
DWIDTH 6 0
BBX 5 8 0 0
BITMAP
20
20
20
50
50
F8
88
88
ENDCHAR
STARTCHAR B
ENCODING 66
SWIDTH 600 0
DWIDTH 6 0
BBX 5 8 0 0
BITMAP
F0
88
88
F0
88
88
88
F0
ENDCHAR
STARTCHAR C
ENCODING 67
SWIDTH 600 0
DWIDTH 6 0
BBX 5 8 0 0
BITMAP
70
88
80
80
80
80
88
70
ENDCHAR
STARTCHAR D
ENCODING 68
SWIDTH 600 0
DWIDTH 6 0
BBX 5 8 0 0
BITMAP
E0
90
88
88
88
88
90
E0
ENDCHAR
STARTCHAR E
ENCODING 69
SWIDTH 600 0
DWIDTH 6 0
BBX 5 8 0 0
BITMAP
F8
80
80
F0
80
80
80
F8
ENDCHAR
STARTCHAR F
ENCODING 70
SWIDTH 600 0
DWIDTH 6 0
BBX 5 8 0 0
BITMAP
F8
80
80
F0
80
80
80
80
ENDCHAR
STARTCHAR G
ENCODING 71
SWIDTH 600 0
DWIDTH 6 0
BBX 5 8 0 0
BITMAP
70
88
80
80
98
88
88
70
ENDCHAR
STARTCHAR H
ENCODING 72
SWIDTH 600 0
DWIDTH 6 0
BBX 5 8 0 0
BITMAP
88
88
88
F8
88
88
88
88
ENDCHAR
STARTCHAR I
ENCODING 73
SWIDTH 600 0
DWIDTH 6 0
BBX 3 8 1 0
BITMAP
E0
40
40
40
40
40
40
E0
ENDCHAR
STARTCHAR J
ENCODING 74
SWIDTH 600 0
DWIDTH 6 0
BBX 5 8 0 0
BITMAP
78
08
08
08
08
88
88
70
ENDCHAR
STARTCHAR K
ENCODING 75
SWIDTH 600 0
DWIDTH 6 0
BBX 5 8 0 0
BITMAP
88
90
A0
C0
C0
A0
90
88
ENDCHAR
STARTCHAR L
ENCODING 76
SWIDTH 600 0
DWIDTH 6 0
BBX 5 8 0 0
BITMAP
80
80
80
80
80
80
80
F8
ENDCHAR
STARTCHAR M
ENCODING 77
SWIDTH 600 0
DWIDTH 6 0
BBX 5 8 0 0
BITMAP
88
D8
D8
A8
88
88
88
88
ENDCHAR
STARTCHAR N
ENCODING 78
SWIDTH 600 0
DWIDTH 6 0
BBX 5 8 0 0
BITMAP
88
C8
C8
A8
A8
98
98
88
ENDCHAR
STARTCHAR O
ENCODING 79
SWIDTH 600 0
DWIDTH 6 0
BBX 5 8 0 0
BITMAP
70
88
88
88
88
88
88
70
ENDCHAR
STARTCHAR P
ENCODING 80
SWIDTH 600 0
DWIDTH 6 0
BBX 5 8 0 0
BITMAP
F0
88
88
88
F0
80
80
80
ENDCHAR
STARTCHAR Q
ENCODING 81
SWIDTH 600 0
DWIDTH 6 0
BBX 6 10 0 -2
BITMAP
70
88
88
88
88
88
88
70
10
0C
ENDCHAR
STARTCHAR R
ENCODING 82
SWIDTH 600 0
DWIDTH 6 0
BBX 5 8 0 0
BITMAP
F0
88
88
88
F0
A0
90
88
ENDCHAR
STARTCHAR S
ENCODING 83
SWIDTH 600 0
DWIDTH 6 0
BBX 5 8 0 0
BITMAP
70
88
80
70
08
08
88
70
ENDCHAR
STARTCHAR T
ENCODING 84
SWIDTH 600 0
DWIDTH 6 0
BBX 5 8 0 0
BITMAP
F8
20
20
20
20
20
20
20
ENDCHAR
STARTCHAR U
ENCODING 85
SWIDTH 600 0
DWIDTH 6 0
BBX 5 8 0 0
BITMAP
88
88
88
88
88
88
88
70
ENDCHAR
STARTCHAR V
ENCODING 86
SWIDTH 600 0
DWIDTH 6 0
BBX 5 8 0 0
BITMAP
88
88
88
88
50
50
20
20
ENDCHAR
STARTCHAR W
ENCODING 87
SWIDTH 600 0
DWIDTH 6 0
BBX 5 8 0 0
BITMAP
88
88
A8
A8
A8
50
50
50
ENDCHAR
STARTCHAR X
ENCODING 88
SWIDTH 600 0
DWIDTH 6 0
BBX 5 8 0 0
BITMAP
88
88
50
20
20
50
88
88
ENDCHAR
STARTCHAR Y
ENCODING 89
SWIDTH 600 0
DWIDTH 6 0
BBX 5 8 0 0
BITMAP
88
88
50
50
20
20
20
20
ENDCHAR
STARTCHAR Z
ENCODING 90
SWIDTH 600 0
DWIDTH 6 0
BBX 5 8 0 0
BITMAP
F8
08
10
20
20
40
80
F8
ENDCHAR
STARTCHAR bracketleft
ENCODING 91
SWIDTH 600 0
DWIDTH 6 0
BBX 3 11 2 -3
BITMAP
E0
80
80
80
80
80
80
80
80
80
E0
ENDCHAR
STARTCHAR backslash
ENCODING 92
SWIDTH 600 0
DWIDTH 6 0
BBX 4 8 1 0
BITMAP
80
80
40
40
20
20
10
10
ENDCHAR
STARTCHAR bracketright
ENCODING 93
SWIDTH 600 0
DWIDTH 6 0
BBX 3 11 1 -3
BITMAP
E0
20
20
20
20
20
20
20
20
20
E0
ENDCHAR
STARTCHAR asciicircum
ENCODING 94
SWIDTH 600 0
DWIDTH 6 0
BBX 5 5 0 3
BITMAP
20
20
50
50
88
ENDCHAR
STARTCHAR underscore
ENCODING 95
SWIDTH 600 0
DWIDTH 6 0
BBX 5 1 0 -1
BITMAP
F8
ENDCHAR
STARTCHAR grave
ENCODING 96
SWIDTH 600 0
DWIDTH 6 0
BBX 2 2 2 5
BITMAP
80
40
ENDCHAR
STARTCHAR a
ENCODING 97
SWIDTH 600 0
DWIDTH 6 0
BBX 5 6 0 0
BITMAP
78
88
88
88
98
68
ENDCHAR
STARTCHAR b
ENCODING 98
SWIDTH 600 0
DWIDTH 6 0
BBX 5 8 0 0
BITMAP
80
80
B0
C8
88
88
88
F0
ENDCHAR
STARTCHAR c
ENCODING 99
SWIDTH 600 0
DWIDTH 6 0
BBX 5 6 0 0
BITMAP
70
88
80
80
88
70
ENDCHAR
STARTCHAR d
ENCODING 100
SWIDTH 600 0
DWIDTH 6 0
BBX 5 8 0 0
BITMAP
08
08
78
88
88
88
98
68
ENDCHAR
STARTCHAR e
ENCODING 101
SWIDTH 600 0
DWIDTH 6 0
BBX 5 6 0 0
BITMAP
70
88
F8
80
88
70
ENDCHAR
STARTCHAR f
ENCODING 102
SWIDTH 600 0
DWIDTH 6 0
BBX 4 8 0 0
BITMAP
30
40
F0
40
40
40
40
40
ENDCHAR
STARTCHAR g
ENCODING 103
SWIDTH 600 0
DWIDTH 6 0
BBX 5 8 0 -2
BITMAP
78
88
88
88
98
68
08
70
ENDCHAR
STARTCHAR h
ENCODING 104
SWIDTH 600 0
DWIDTH 6 0
BBX 5 8 0 0
BITMAP
80
80
B0
C8
88
88
88
88
ENDCHAR
STARTCHAR i
ENCODING 105
SWIDTH 600 0
DWIDTH 6 0
BBX 3 8 1 0
BITMAP
40
00
C0
40
40
40
40
60
ENDCHAR
STARTCHAR j
ENCODING 106
SWIDTH 600 0
DWIDTH 6 0
BBX 4 10 0 -2
BITMAP
10
00
70
10
10
10
10
10
10
E0
ENDCHAR
STARTCHAR k
ENCODING 107
SWIDTH 600 0
DWIDTH 6 0
BBX 5 8 0 0
BITMAP
80
80
90
A0
C0
A0
90
88
ENDCHAR
STARTCHAR l
ENCODING 108
SWIDTH 600 0
DWIDTH 6 0
BBX 2 8 2 0
BITMAP
80
80
80
80
80
80
80
C0
ENDCHAR
STARTCHAR m
ENCODING 109
SWIDTH 600 0
DWIDTH 6 0
BBX 5 6 0 0
BITMAP
D0
A8
A8
A8
A8
A8
ENDCHAR
STARTCHAR n
ENCODING 110
SWIDTH 600 0
DWIDTH 6 0
BBX 5 6 0 0
BITMAP
B0
C8
88
88
88
88
ENDCHAR
STARTCHAR o
ENCODING 111
SWIDTH 600 0
DWIDTH 6 0
BBX 5 6 0 0
BITMAP
70
88
88
88
88
70
ENDCHAR
STARTCHAR p
ENCODING 112
SWIDTH 600 0
DWIDTH 6 0
BBX 5 8 0 -2
BITMAP
B0
C8
88
88
88
F0
80
80
ENDCHAR
STARTCHAR q
ENCODING 113
SWIDTH 600 0
DWIDTH 6 0
BBX 5 8 0 -2
BITMAP
78
88
88
88
98
68
08
08
ENDCHAR
STARTCHAR r
ENCODING 114
SWIDTH 600 0
DWIDTH 6 0
BBX 5 6 0 0
BITMAP
D8
60
40
40
40
E0
ENDCHAR
STARTCHAR s
ENCODING 115
SWIDTH 600 0
DWIDTH 6 0
BBX 5 6 0 0
BITMAP
70
88
60
10
88
70
ENDCHAR
STARTCHAR t
ENCODING 116
SWIDTH 600 0
DWIDTH 6 0
BBX 5 8 0 0
BITMAP
40
40
F0
40
40
40
48
30
ENDCHAR
STARTCHAR u
ENCODING 117
SWIDTH 600 0
DWIDTH 6 0
BBX 5 6 0 0
BITMAP
88
88
88
88
98
68
ENDCHAR
STARTCHAR v
ENCODING 118
SWIDTH 600 0
DWIDTH 6 0
BBX 5 6 0 0
BITMAP
88
88
50
50
20
20
ENDCHAR
STARTCHAR w
ENCODING 119
SWIDTH 600 0
DWIDTH 6 0
BBX 5 6 0 0
BITMAP
88
88
A8
A8
50
50
ENDCHAR
STARTCHAR x
ENCODING 120
SWIDTH 600 0
DWIDTH 6 0
BBX 5 6 0 0
BITMAP
88
50
20
20
50
88
ENDCHAR
STARTCHAR y
ENCODING 121
SWIDTH 600 0
DWIDTH 6 0
BBX 5 8 0 -2
BITMAP
88
88
50
50
20
20
40
80
ENDCHAR
STARTCHAR z
ENCODING 122
SWIDTH 600 0
DWIDTH 6 0
BBX 5 6 0 0
BITMAP
F8
10
20
40
80
F8
ENDCHAR
STARTCHAR braceleft
ENCODING 123
SWIDTH 600 0
DWIDTH 6 0
BBX 5 11 0 -3
BITMAP
18
20
20
20
20
C0
20
20
20
20
18
ENDCHAR
STARTCHAR bar
ENCODING 124
SWIDTH 600 0
DWIDTH 6 0
BBX 1 10 2 -1
BITMAP
80
80
80
80
80
80
80
80
80
80
ENDCHAR
STARTCHAR braceright
ENCODING 125
SWIDTH 600 0
DWIDTH 6 0
BBX 5 11 0 -3
BITMAP
C0
20
20
20
20
18
20
20
20
20
C0
ENDCHAR
STARTCHAR asciitilde
ENCODING 126
SWIDTH 600 0
DWIDTH 6 0
BBX 6 2 0 3
BITMAP
64
98
ENDCHAR
STARTCHAR nonbreakingspace
ENCODING 160
SWIDTH 600 0
DWIDTH 6 0
BBX 0 0 0 0
BITMAP
ENDCHAR
STARTCHAR exclamdown
ENCODING 161
SWIDTH 600 0
DWIDTH 6 0
BBX 1 8 3 -2
BITMAP
80
00
80
80
80
80
80
80
ENDCHAR
STARTCHAR cent
ENCODING 162
SWIDTH 600 0
DWIDTH 6 0
BBX 5 10 0 -1
BITMAP
20
20
70
A8
A0
A0
A8
70
20
20
ENDCHAR
STARTCHAR sterling
ENCODING 163
SWIDTH 600 0
DWIDTH 6 0
BBX 5 8 0 0
BITMAP
30
40
40
F0
40
40
88
F8
ENDCHAR
STARTCHAR yen
ENCODING 165
SWIDTH 600 0
DWIDTH 6 0
BBX 5 8 0 0
BITMAP
88
88
50
20
F8
20
F8
20
ENDCHAR
STARTCHAR section
ENCODING 167
SWIDTH 600 0
DWIDTH 6 0
BBX 5 10 0 -1
BITMAP
78
80
80
70
88
88
70
08
08
F0
ENDCHAR
STARTCHAR dieresis
ENCODING 168
SWIDTH 600 0
DWIDTH 6 0
BBX 3 1 1 6
BITMAP
A0
ENDCHAR
STARTCHAR copyright
ENCODING 169
SWIDTH 600 0
DWIDTH 6 0
BBX 6 8 0 0
BITMAP
30
48
B4
A4
A4
B4
48
30
ENDCHAR
STARTCHAR ordfeminine
ENCODING 170
SWIDTH 600 0
DWIDTH 6 0
BBX 3 6 1 2
BITMAP
60
A0
A0
60
00
E0
ENDCHAR
STARTCHAR guillemotleft
ENCODING 171
SWIDTH 600 0
DWIDTH 6 0
BBX 5 5 0 0
BITMAP
28
50
A0
50
28
ENDCHAR
STARTCHAR logicalnot
ENCODING 172
SWIDTH 600 0
DWIDTH 6 0
BBX 5 3 0 0
BITMAP
F8
08
08
ENDCHAR
STARTCHAR registered
ENCODING 174
SWIDTH 600 0
DWIDTH 6 0
BBX 6 8 0 0
BITMAP
30
48
B4
B4
A4
B4
48
30
ENDCHAR
STARTCHAR macron
ENCODING 175
SWIDTH 600 0
DWIDTH 6 0
BBX 3 1 1 6
BITMAP
E0
ENDCHAR
STARTCHAR degree
ENCODING 176
SWIDTH 600 0
DWIDTH 6 0
BBX 3 3 1 5
BITMAP
40
A0
40
ENDCHAR
STARTCHAR plusminus
ENCODING 177
SWIDTH 600 0
DWIDTH 6 0
BBX 5 7 0 0
BITMAP
20
20
F8
20
20
00
F8
ENDCHAR
STARTCHAR acute
ENCODING 180
SWIDTH 600 0
DWIDTH 6 0
BBX 2 2 2 6
BITMAP
40
80
ENDCHAR
STARTCHAR mu
ENCODING 181
SWIDTH 600 0
DWIDTH 6 0
BBX 5 8 0 -2
BITMAP
88
88
88
88
D8
A8
80
80
ENDCHAR
STARTCHAR paragraph
ENCODING 182
SWIDTH 600 0
DWIDTH 6 0
BBX 6 9 0 -2
BITMAP
7C
E8
E8
68
28
28
28
28
28
ENDCHAR
STARTCHAR periodcentered
ENCODING 183
SWIDTH 600 0
DWIDTH 6 0
BBX 2 2 2 2
BITMAP
C0
C0
ENDCHAR
STARTCHAR cedilla
ENCODING 184
SWIDTH 600 0
DWIDTH 6 0
BBX 2 3 1 -3
BITMAP
80
40
80
ENDCHAR
STARTCHAR ordmasculine
ENCODING 186
SWIDTH 600 0
DWIDTH 6 0
BBX 3 6 1 2
BITMAP
40
A0
A0
40
00
E0
ENDCHAR
STARTCHAR guillemotright
ENCODING 187
SWIDTH 600 0
DWIDTH 6 0
BBX 5 5 0 0
BITMAP
A0
50
28
50
A0
ENDCHAR
STARTCHAR questiondown
ENCODING 191
SWIDTH 600 0
DWIDTH 6 0
BBX 5 8 0 -2
BITMAP
20
00
20
20
40
80
88
70
ENDCHAR
STARTCHAR Agrave
ENCODING 192
SWIDTH 600 0
DWIDTH 6 0
BBX 5 10 0 0
BITMAP
40
20
00
20
20
50
50
F8
88
88
ENDCHAR
STARTCHAR Aacute
ENCODING 193
SWIDTH 600 0
DWIDTH 6 0
BBX 5 10 0 0
BITMAP
10
20
00
20
20
50
50
F8
88
88
ENDCHAR
STARTCHAR Acircumflex
ENCODING 194
SWIDTH 600 0
DWIDTH 6 0
BBX 5 10 0 0
BITMAP
20
50
00
20
20
50
50
F8
88
88
ENDCHAR
STARTCHAR Atilde
ENCODING 195
SWIDTH 600 0
DWIDTH 6 0
BBX 5 10 0 0
BITMAP
28
50
00
20
20
50
50
F8
88
88
ENDCHAR
STARTCHAR Adieresis
ENCODING 196
SWIDTH 600 0
DWIDTH 6 0
BBX 5 10 0 0
BITMAP
50
00
20
20
20
50
50
F8
88
88
ENDCHAR
STARTCHAR Aring
ENCODING 197
SWIDTH 600 0
DWIDTH 6 0
BBX 5 10 0 0
BITMAP
20
50
20
20
20
50
50
F8
88
88
ENDCHAR
STARTCHAR AE
ENCODING 198
SWIDTH 600 0
DWIDTH 6 0
BBX 5 8 0 0
BITMAP
78
60
60
78
E0
A0
A0
B8
ENDCHAR
STARTCHAR Ccedilla
ENCODING 199
SWIDTH 600 0
DWIDTH 6 0
BBX 5 11 0 -3
BITMAP
70
88
80
80
80
80
88
70
20
10
20
ENDCHAR
STARTCHAR Egrave
ENCODING 200
SWIDTH 600 0
DWIDTH 6 0
BBX 5 10 0 0
BITMAP
40
20
F8
80
80
F0
80
80
80
F8
ENDCHAR
STARTCHAR Eacute
ENCODING 201
SWIDTH 600 0
DWIDTH 6 0
BBX 5 10 0 0
BITMAP
10
20
F8
80
80
F0
80
80
80
F8
ENDCHAR
STARTCHAR Ecircumflex
ENCODING 202
SWIDTH 600 0
DWIDTH 6 0
BBX 5 10 0 0
BITMAP
20
50
F8
80
80
F0
80
80
80
F8
ENDCHAR
STARTCHAR Edieresis
ENCODING 203
SWIDTH 600 0
DWIDTH 6 0
BBX 5 10 0 0
BITMAP
50
00
F8
80
80
F0
80
80
80
F8
ENDCHAR
STARTCHAR Igrave
ENCODING 204
SWIDTH 600 0
DWIDTH 6 0
BBX 3 10 1 0
BITMAP
80
40
E0
40
40
40
40
40
40
E0
ENDCHAR
STARTCHAR Iacute
ENCODING 205
SWIDTH 600 0
DWIDTH 6 0
BBX 3 10 1 0
BITMAP
20
40
E0
40
40
40
40
40
40
E0
ENDCHAR
STARTCHAR Icircumflex
ENCODING 206
SWIDTH 600 0
DWIDTH 6 0
BBX 3 10 1 0
BITMAP
40
A0
E0
40
40
40
40
40
40
E0
ENDCHAR
STARTCHAR Idieresis
ENCODING 207
SWIDTH 600 0
DWIDTH 6 0
BBX 3 10 1 0
BITMAP
A0
00
E0
40
40
40
40
40
40
E0
ENDCHAR
STARTCHAR Ntilde
ENCODING 209
SWIDTH 600 0
DWIDTH 6 0
BBX 5 10 0 0
BITMAP
28
50
88
C8
C8
A8
A8
98
98
88
ENDCHAR
STARTCHAR Ograve
ENCODING 210
SWIDTH 600 0
DWIDTH 6 0
BBX 5 10 0 0
BITMAP
40
20
70
88
88
88
88
88
88
70
ENDCHAR
STARTCHAR Oacute
ENCODING 211
SWIDTH 600 0
DWIDTH 6 0
BBX 5 10 0 0
BITMAP
10
20
70
88
88
88
88
88
88
70
ENDCHAR
STARTCHAR Ocircumflex
ENCODING 212
SWIDTH 600 0
DWIDTH 6 0
BBX 5 10 0 0
BITMAP
20
50
70
88
88
88
88
88
88
70
ENDCHAR
STARTCHAR Otilde
ENCODING 213
SWIDTH 600 0
DWIDTH 6 0
BBX 5 10 0 0
BITMAP
50
A0
70
88
88
88
88
88
88
70
ENDCHAR
STARTCHAR Odieresis
ENCODING 214
SWIDTH 600 0
DWIDTH 6 0
BBX 5 10 0 0
BITMAP
50
00
70
88
88
88
88
88
88
70
ENDCHAR
STARTCHAR Oslash
ENCODING 216
SWIDTH 600 0
DWIDTH 6 0
BBX 6 10 0 -1
BITMAP
04
78
98
98
A8
A8
C8
C8
F0
80
ENDCHAR
STARTCHAR Ugrave
ENCODING 217
SWIDTH 600 0
DWIDTH 6 0
BBX 5 10 0 0
BITMAP
40
20
88
88
88
88
88
88
88
70
ENDCHAR
STARTCHAR Uacute
ENCODING 218
SWIDTH 600 0
DWIDTH 6 0
BBX 5 10 0 0
BITMAP
10
20
88
88
88
88
88
88
88
70
ENDCHAR
STARTCHAR Ucircumflex
ENCODING 219
SWIDTH 600 0
DWIDTH 6 0
BBX 5 10 0 0
BITMAP
20
50
88
88
88
88
88
88
88
70
ENDCHAR
STARTCHAR Udieresis
ENCODING 220
SWIDTH 600 0
DWIDTH 6 0
BBX 5 10 0 0
BITMAP
50
00
88
88
88
88
88
88
88
70
ENDCHAR
STARTCHAR germandbls
ENCODING 223
SWIDTH 600 0
DWIDTH 6 0
BBX 6 8 0 0
BITMAP
70
88
90
A0
98
84
84
B8
ENDCHAR
STARTCHAR agrave
ENCODING 224
SWIDTH 600 0
DWIDTH 6 0
BBX 5 9 0 0
BITMAP
20
10
00
78
88
88
88
98
68
ENDCHAR
STARTCHAR aacute
ENCODING 225
SWIDTH 600 0
DWIDTH 6 0
BBX 5 9 0 0
BITMAP
10
20
00
78
88
88
88
98
68
ENDCHAR
STARTCHAR acircumflex
ENCODING 226
SWIDTH 600 0
DWIDTH 6 0
BBX 5 9 0 0
BITMAP
20
50
00
78
88
88
88
98
68
ENDCHAR
STARTCHAR atilde
ENCODING 227
SWIDTH 600 0
DWIDTH 6 0
BBX 5 9 0 0
BITMAP
28
50
00
78
88
88
88
98
68
ENDCHAR
STARTCHAR adieresis
ENCODING 228
SWIDTH 600 0
DWIDTH 6 0
BBX 5 8 0 0
BITMAP
50
00
78
88
88
88
98
68
ENDCHAR
STARTCHAR aring
ENCODING 229
SWIDTH 600 0
DWIDTH 6 0
BBX 5 10 0 0
BITMAP
20
50
20
00
78
88
88
88
98
68
ENDCHAR
STARTCHAR ae
ENCODING 230
SWIDTH 600 0
DWIDTH 6 0
BBX 5 6 0 0
BITMAP
70
A8
B8
A0
A0
78
ENDCHAR
STARTCHAR ccedilla
ENCODING 231
SWIDTH 600 0
DWIDTH 6 0
BBX 5 9 0 -3
BITMAP
70
88
80
80
88
70
20
10
20
ENDCHAR
STARTCHAR egrave
ENCODING 232
SWIDTH 600 0
DWIDTH 6 0
BBX 5 9 0 0
BITMAP
40
20
00
70
88
F8
80
88
70
ENDCHAR
STARTCHAR eacute
ENCODING 233
SWIDTH 600 0
DWIDTH 6 0
BBX 5 9 0 0
BITMAP
10
20
00
70
88
F8
80
88
70
ENDCHAR
STARTCHAR ecircumflex
ENCODING 234
SWIDTH 600 0
DWIDTH 6 0
BBX 5 9 0 0
BITMAP
20
50
00
70
88
F8
80
88
70
ENDCHAR
STARTCHAR edieresis
ENCODING 235
SWIDTH 600 0
DWIDTH 6 0
BBX 5 8 0 0
BITMAP
50
00
70
88
F8
80
88
70
ENDCHAR
STARTCHAR igrave
ENCODING 236
SWIDTH 600 0
DWIDTH 6 0
BBX 4 10 0 0
BITMAP
80
40
20
00
60
20
20
20
20
30
ENDCHAR
STARTCHAR iacute
ENCODING 237
SWIDTH 600 0
DWIDTH 6 0
BBX 4 10 1 0
BITMAP
10
20
40
00
C0
40
40
40
40
60
ENDCHAR
STARTCHAR icircumflex
ENCODING 238
SWIDTH 600 0
DWIDTH 6 0
BBX 3 9 1 0
BITMAP
40
A0
00
C0
40
40
40
40
60
ENDCHAR
STARTCHAR idieresis
ENCODING 239
SWIDTH 600 0
DWIDTH 6 0
BBX 3 8 1 0
BITMAP
A0
00
C0
40
40
40
40
60
ENDCHAR
STARTCHAR ntilde
ENCODING 241
SWIDTH 600 0
DWIDTH 6 0
BBX 5 9 0 0
BITMAP
28
50
00
B0
C8
88
88
88
88
ENDCHAR
STARTCHAR ograve
ENCODING 242
SWIDTH 600 0
DWIDTH 6 0
BBX 5 9 0 0
BITMAP
40
20
00
70
88
88
88
88
70
ENDCHAR
STARTCHAR oacute
ENCODING 243
SWIDTH 600 0
DWIDTH 6 0
BBX 5 9 0 0
BITMAP
10
20
00
70
88
88
88
88
70
ENDCHAR
STARTCHAR ocircumflex
ENCODING 244
SWIDTH 600 0
DWIDTH 6 0
BBX 5 9 0 0
BITMAP
20
50
00
70
88
88
88
88
70
ENDCHAR
STARTCHAR otilde
ENCODING 245
SWIDTH 600 0
DWIDTH 6 0
BBX 5 9 0 0
BITMAP
28
50
00
70
88
88
88
88
70
ENDCHAR
STARTCHAR odieresis
ENCODING 246
SWIDTH 600 0
DWIDTH 6 0
BBX 5 8 0 0
BITMAP
50
00
70
88
88
88
88
70
ENDCHAR
STARTCHAR divide
ENCODING 247
SWIDTH 600 0
DWIDTH 6 0
BBX 5 5 0 0
BITMAP
20
00
F8
00
20
ENDCHAR
STARTCHAR oslash
ENCODING 248
SWIDTH 600 0
DWIDTH 6 0
BBX 6 8 0 -1
BITMAP
04
78
98
A8
A8
C8
F0
80
ENDCHAR
STARTCHAR ugrave
ENCODING 249
SWIDTH 600 0
DWIDTH 6 0
BBX 5 9 0 0
BITMAP
40
20
00
88
88
88
88
98
68
ENDCHAR
STARTCHAR uacute
ENCODING 250
SWIDTH 600 0
DWIDTH 6 0
BBX 5 9 0 0
BITMAP
10
20
00
88
88
88
88
98
68
ENDCHAR
STARTCHAR ucircumflex
ENCODING 251
SWIDTH 600 0
DWIDTH 6 0
BBX 5 9 0 0
BITMAP
20
50
00
88
88
88
88
98
68
ENDCHAR
STARTCHAR udieresis
ENCODING 252
SWIDTH 600 0
DWIDTH 6 0
BBX 5 8 0 0
BITMAP
50
00
88
88
88
88
98
68
ENDCHAR
STARTCHAR ydieresis
ENCODING 255
SWIDTH 600 0
DWIDTH 6 0
BBX 5 10 0 -2
BITMAP
50
00
88
88
50
50
20
20
40
80
ENDCHAR
STARTCHAR dotlessi
ENCODING 305
SWIDTH 600 0
DWIDTH 6 0
BBX 3 6 1 0
BITMAP
C0
40
40
40
40
60
ENDCHAR
STARTCHAR OE
ENCODING 338
SWIDTH 600 0
DWIDTH 6 0
BBX 5 8 0 0
BITMAP
78
A0
A0
B8
A0
A0
A0
78
ENDCHAR
STARTCHAR oe
ENCODING 339
SWIDTH 600 0
DWIDTH 6 0
BBX 5 6 0 0
BITMAP
70
A8
B8
A0
A8
70
ENDCHAR
STARTCHAR Ydieresis
ENCODING 376
SWIDTH 600 0
DWIDTH 6 0
BBX 5 10 0 0
BITMAP
50
00
88
88
50
50
20
20
20
20
ENDCHAR
STARTCHAR florin
ENCODING 402
SWIDTH 600 0
DWIDTH 6 0
BBX 5 11 0 -3
BITMAP
18
20
78
20
20
20
20
20
20
A0
40
ENDCHAR
STARTCHAR circumflex
ENCODING 710
SWIDTH 600 0
DWIDTH 6 0
BBX 3 2 1 6
BITMAP
40
A0
ENDCHAR
STARTCHAR caron
ENCODING 711
SWIDTH 600 0
DWIDTH 6 0
BBX 3 2 0 6
BITMAP
A0
40
ENDCHAR
STARTCHAR breve
ENCODING 728
SWIDTH 600 0
DWIDTH 6 0
BBX 3 2 1 6
BITMAP
A0
40
ENDCHAR
STARTCHAR dotaccent
ENCODING 729
SWIDTH 600 0
DWIDTH 6 0
BBX 2 2 2 6
BITMAP
C0
C0
ENDCHAR
STARTCHAR ring
ENCODING 730
SWIDTH 600 0
DWIDTH 6 0
BBX 3 3 1 6
BITMAP
40
A0
40
ENDCHAR
STARTCHAR ogonek
ENCODING 731
SWIDTH 600 0
DWIDTH 6 0
BBX 2 3 1 -3
BITMAP
40
80
40
ENDCHAR
STARTCHAR tilde
ENCODING 732
SWIDTH 600 0
DWIDTH 6 0
BBX 4 2 1 6
BITMAP
50
A0
ENDCHAR
STARTCHAR hungarumlaut
ENCODING 733
SWIDTH 600 0
DWIDTH 6 0
BBX 3 3 2 6
BITMAP
A0
A0
A0
ENDCHAR
STARTCHAR Omegagreek
ENCODING 937
SWIDTH 600 0
DWIDTH 6 0
BBX 5 8 0 0
BITMAP
70
D8
88
88
88
88
50
D8
ENDCHAR
STARTCHAR pi
ENCODING 960
SWIDTH 600 0
DWIDTH 6 0
BBX 5 6 0 0
BITMAP
F8
50
50
50
50
50
ENDCHAR
STARTCHAR Iocyrillic
ENCODING 1025
SWIDTH 600 0
DWIDTH 6 0
BBX 5 10 0 0
BITMAP
50
00
F8
80
80
F0
80
80
80
F8
ENDCHAR
STARTCHAR Djecyrillic
ENCODING 1026
SWIDTH 600 0
DWIDTH 6 0
BBX 5 10 0 -2
BITMAP
F8
40
40
70
48
48
48
48
08
30
ENDCHAR
STARTCHAR Gjecyrillic
ENCODING 1027
SWIDTH 600 0
DWIDTH 6 0
BBX 5 10 0 0
BITMAP
10
20
F8
80
80
80
80
80
80
80
ENDCHAR
STARTCHAR Ecyrillic
ENCODING 1028
SWIDTH 600 0
DWIDTH 6 0
BBX 5 8 0 0
BITMAP
70
88
80
F0
80
80
88
70
ENDCHAR
STARTCHAR Dzecyrillic
ENCODING 1029
SWIDTH 600 0
DWIDTH 6 0
BBX 5 8 0 0
BITMAP
70
88
80
70
08
08
88
70
ENDCHAR
STARTCHAR Icyrillic
ENCODING 1030
SWIDTH 600 0
DWIDTH 6 0
BBX 1 8 2 0
BITMAP
80
80
80
80
80
80
80
80
ENDCHAR
STARTCHAR Yicyrillic
ENCODING 1031
SWIDTH 600 0
DWIDTH 6 0
BBX 3 10 1 0
BITMAP
A0
00
40
40
40
40
40
40
40
40
ENDCHAR
STARTCHAR Jecyrillic
ENCODING 1032
SWIDTH 600 0
DWIDTH 6 0
BBX 5 8 0 0
BITMAP
08
08
08
08
08
08
88
70
ENDCHAR
STARTCHAR Ljecyrillic
ENCODING 1033
SWIDTH 600 0
DWIDTH 6 0
BBX 6 8 0 0
BITMAP
30
50
50
50
58
54
54
98
ENDCHAR
STARTCHAR Njecyrillic
ENCODING 1034
SWIDTH 600 0
DWIDTH 6 0
BBX 5 8 0 0
BITMAP
A0
A0
A0
F0
A8
A8
A8
B0
ENDCHAR
STARTCHAR Tshecyrillic
ENCODING 1035
SWIDTH 600 0
DWIDTH 6 0
BBX 5 8 0 0
BITMAP
F8
40
40
70
48
48
48
48
ENDCHAR
STARTCHAR Kjecyrillic
ENCODING 1036
SWIDTH 600 0
DWIDTH 6 0
BBX 5 10 0 0
BITMAP
10
20
88
90
A0
C0
C0
A0
90
88
ENDCHAR
STARTCHAR Ushortcyrillic
ENCODING 1038
SWIDTH 600 0
DWIDTH 6 0
BBX 5 10 0 0
BITMAP
50
20
88
88
88
78
08
08
88
70
ENDCHAR
STARTCHAR Dzhecyrillic
ENCODING 1039
SWIDTH 600 0
DWIDTH 6 0
BBX 5 10 0 -2
BITMAP
88
88
88
88
88
88
88
F8
20
20
ENDCHAR
STARTCHAR Acyrillic
ENCODING 1040
SWIDTH 600 0
DWIDTH 6 0
BBX 5 8 0 0
BITMAP
70
88
88
88
F8
88
88
88
ENDCHAR
STARTCHAR Becyrillic
ENCODING 1041
SWIDTH 600 0
DWIDTH 6 0
BBX 5 8 0 0
BITMAP
F8
80
80
F0
88
88
88
F0
ENDCHAR
STARTCHAR Vecyrillic
ENCODING 1042
SWIDTH 600 0
DWIDTH 6 0
BBX 5 8 0 0
BITMAP
F0
88
88
F0
88
88
88
F0
ENDCHAR
STARTCHAR Gecyrillic
ENCODING 1043
SWIDTH 600 0
DWIDTH 6 0
BBX 5 8 0 0
BITMAP
F8
80
80
80
80
80
80
80
ENDCHAR
STARTCHAR Decyrillic
ENCODING 1044
SWIDTH 600 0
DWIDTH 6 0
BBX 6 10 0 -2
BITMAP
38
48
48
48
48
48
48
FC
84
84
ENDCHAR
STARTCHAR Iecyrillic
ENCODING 1045
SWIDTH 600 0
DWIDTH 6 0
BBX 5 8 0 0
BITMAP
F8
80
80
F0
80
80
80
F8
ENDCHAR
STARTCHAR Zhecyrillic
ENCODING 1046
SWIDTH 600 0
DWIDTH 6 0
BBX 5 8 0 0
BITMAP
A8
A8
A8
70
A8
A8
A8
A8
ENDCHAR
STARTCHAR Zecyrillic
ENCODING 1047
SWIDTH 600 0
DWIDTH 6 0
BBX 5 8 0 0
BITMAP
70
88
08
30
08
08
88
70
ENDCHAR
STARTCHAR Iicyrillic
ENCODING 1048
SWIDTH 600 0
DWIDTH 6 0
BBX 5 8 0 0
BITMAP
88
88
88
98
A8
C8
88
88
ENDCHAR
STARTCHAR Iishortcyrillic
ENCODING 1049
SWIDTH 600 0
DWIDTH 6 0
BBX 5 10 0 0
BITMAP
50
20
88
88
88
98
A8
C8
88
88
ENDCHAR
STARTCHAR Kacyrillic
ENCODING 1050
SWIDTH 600 0
DWIDTH 6 0
BBX 5 8 0 0
BITMAP
88
90
A0
C0
C0
A0
90
88
ENDCHAR
STARTCHAR Elcyrillic
ENCODING 1051
SWIDTH 600 0
DWIDTH 6 0
BBX 5 8 0 0
BITMAP
38
48
48
48
48
48
48
88
ENDCHAR
STARTCHAR Emcyrillic
ENCODING 1052
SWIDTH 600 0
DWIDTH 6 0
BBX 5 8 0 0
BITMAP
88
D8
A8
88
88
88
88
88
ENDCHAR
STARTCHAR Encyrillic
ENCODING 1053
SWIDTH 600 0
DWIDTH 6 0
BBX 5 8 0 0
BITMAP
88
88
88
F8
88
88
88
88
ENDCHAR
STARTCHAR Ocyrillic
ENCODING 1054
SWIDTH 600 0
DWIDTH 6 0
BBX 5 8 0 0
BITMAP
70
88
88
88
88
88
88
70
ENDCHAR
STARTCHAR Pecyrillic
ENCODING 1055
SWIDTH 600 0
DWIDTH 6 0
BBX 5 8 0 0
BITMAP
F8
88
88
88
88
88
88
88
ENDCHAR
STARTCHAR Ercyrillic
ENCODING 1056
SWIDTH 600 0
DWIDTH 6 0
BBX 5 8 0 0
BITMAP
F0
88
88
88
F0
80
80
80
ENDCHAR
STARTCHAR Escyrillic
ENCODING 1057
SWIDTH 600 0
DWIDTH 6 0
BBX 5 8 0 0
BITMAP
70
88
80
80
80
80
88
70
ENDCHAR
STARTCHAR Tecyrillic
ENCODING 1058
SWIDTH 600 0
DWIDTH 6 0
BBX 5 8 0 0
BITMAP
F8
20
20
20
20
20
20
20
ENDCHAR
STARTCHAR Ucyrillic
ENCODING 1059
SWIDTH 600 0
DWIDTH 6 0
BBX 5 8 0 0
BITMAP
88
88
88
78
08
08
88
70
ENDCHAR
STARTCHAR Efcyrillic
ENCODING 1060
SWIDTH 600 0
DWIDTH 6 0
BBX 5 8 0 0
BITMAP
20
70
A8
A8
A8
A8
70
20
ENDCHAR
STARTCHAR Khacyrillic
ENCODING 1061
SWIDTH 600 0
DWIDTH 6 0
BBX 5 8 0 0
BITMAP
88
88
50
20
20
50
88
88
ENDCHAR
STARTCHAR Tsecyrillic
ENCODING 1062
SWIDTH 600 0
DWIDTH 6 0
BBX 6 10 0 -2
BITMAP
88
88
88
88
88
88
88
FC
04
04
ENDCHAR
STARTCHAR Checyrillic
ENCODING 1063
SWIDTH 600 0
DWIDTH 6 0
BBX 5 8 0 0
BITMAP
88
88
88
88
78
08
08
08
ENDCHAR
STARTCHAR Shacyrillic
ENCODING 1064
SWIDTH 600 0
DWIDTH 6 0
BBX 5 8 0 0
BITMAP
A8
A8
A8
A8
A8
A8
A8
F8
ENDCHAR
STARTCHAR Shchacyrillic
ENCODING 1065
SWIDTH 600 0
DWIDTH 6 0
BBX 6 10 0 -2
BITMAP
A8
A8
A8
A8
A8
A8
A8
FC
04
04
ENDCHAR
STARTCHAR Hardsigncyrillic
ENCODING 1066
SWIDTH 600 0
DWIDTH 6 0
BBX 5 8 0 0
BITMAP
C0
40
40
70
48
48
48
70
ENDCHAR
STARTCHAR Yericyrillic
ENCODING 1067
SWIDTH 600 0
DWIDTH 6 0
BBX 5 8 0 0
BITMAP
88
88
88
C8
A8
A8
A8
C8
ENDCHAR
STARTCHAR Softsigncyrillic
ENCODING 1068
SWIDTH 600 0
DWIDTH 6 0
BBX 5 8 0 0
BITMAP
80
80
80
F0
88
88
88
F0
ENDCHAR
STARTCHAR Ereversedcyrillic
ENCODING 1069
SWIDTH 600 0
DWIDTH 6 0
BBX 5 8 0 0
BITMAP
70
88
08
38
08
08
88
70
ENDCHAR
STARTCHAR IUcyrillic
ENCODING 1070
SWIDTH 600 0
DWIDTH 6 0
BBX 5 8 0 0
BITMAP
90
A8
A8
E8
A8
A8
A8
90
ENDCHAR
STARTCHAR IAcyrillic
ENCODING 1071
SWIDTH 600 0
DWIDTH 6 0
BBX 5 8 0 0
BITMAP
78
88
88
88
78
28
48
88
ENDCHAR
STARTCHAR acyrillic
ENCODING 1072
SWIDTH 600 0
DWIDTH 6 0
BBX 5 6 0 0
BITMAP
78
88
88
88
98
68
ENDCHAR
STARTCHAR becyrillic
ENCODING 1073
SWIDTH 600 0
DWIDTH 6 0
BBX 5 9 0 0
BITMAP
08
70
80
F0
88
88
88
88
70
ENDCHAR
STARTCHAR vecyrillic
ENCODING 1074
SWIDTH 600 0
DWIDTH 6 0
BBX 5 6 0 0
BITMAP
F0
88
F0
88
88
F0
ENDCHAR
STARTCHAR gecyrillic
ENCODING 1075
SWIDTH 600 0
DWIDTH 6 0
BBX 4 6 1 0
BITMAP
F0
80
80
80
80
80
ENDCHAR
STARTCHAR decyrillic
ENCODING 1076
SWIDTH 600 0
DWIDTH 6 0
BBX 6 8 0 -2
BITMAP
38
48
48
48
48
FC
84
84
ENDCHAR
STARTCHAR iecyrillic
ENCODING 1077
SWIDTH 600 0
DWIDTH 6 0
BBX 5 6 0 0
BITMAP
70
88
F8
80
88
70
ENDCHAR
STARTCHAR zhecyrillic
ENCODING 1078
SWIDTH 600 0
DWIDTH 6 0
BBX 5 6 0 0
BITMAP
A8
A8
70
A8
A8
A8
ENDCHAR
STARTCHAR zecyrillic
ENCODING 1079
SWIDTH 600 0
DWIDTH 6 0
BBX 5 6 0 0
BITMAP
70
88
30
08
88
70
ENDCHAR
STARTCHAR iicyrillic
ENCODING 1080
SWIDTH 600 0
DWIDTH 6 0
BBX 5 6 0 0
BITMAP
88
88
98
A8
C8
88
ENDCHAR
STARTCHAR iishortcyrillic
ENCODING 1081
SWIDTH 600 0
DWIDTH 6 0
BBX 5 9 0 0
BITMAP
50
20
00
88
88
98
A8
C8
88
ENDCHAR
STARTCHAR kacyrillic
ENCODING 1082
SWIDTH 600 0
DWIDTH 6 0
BBX 5 6 0 0
BITMAP
88
90
A0
E0
90
88
ENDCHAR
STARTCHAR elcyrillic
ENCODING 1083
SWIDTH 600 0
DWIDTH 6 0
BBX 5 6 0 0
BITMAP
38
48
48
48
48
88
ENDCHAR
STARTCHAR emcyrillic
ENCODING 1084
SWIDTH 600 0
DWIDTH 6 0
BBX 5 6 0 0
BITMAP
88
D8
A8
88
88
88
ENDCHAR
STARTCHAR encyrillic
ENCODING 1085
SWIDTH 600 0
DWIDTH 6 0
BBX 5 6 0 0
BITMAP
88
88
F8
88
88
88
ENDCHAR
STARTCHAR ocyrillic
ENCODING 1086
SWIDTH 600 0
DWIDTH 6 0
BBX 5 6 0 0
BITMAP
70
88
88
88
88
70
ENDCHAR
STARTCHAR pecyrillic
ENCODING 1087
SWIDTH 600 0
DWIDTH 6 0
BBX 5 6 0 0
BITMAP
F8
88
88
88
88
88
ENDCHAR
STARTCHAR ercyrillic
ENCODING 1088
SWIDTH 600 0
DWIDTH 6 0
BBX 5 8 0 -2
BITMAP
F0
88
88
88
88
F0
80
80
ENDCHAR
STARTCHAR escyrillic
ENCODING 1089
SWIDTH 600 0
DWIDTH 6 0
BBX 5 6 0 0
BITMAP
70
88
80
80
88
70
ENDCHAR
STARTCHAR tecyrillic
ENCODING 1090
SWIDTH 600 0
DWIDTH 6 0
BBX 5 6 0 0
BITMAP
F8
20
20
20
20
20
ENDCHAR
STARTCHAR ucyrillic
ENCODING 1091
SWIDTH 600 0
DWIDTH 6 0
BBX 5 8 0 -2
BITMAP
88
88
88
88
88
78
08
F0
ENDCHAR
STARTCHAR efcyrillic
ENCODING 1092
SWIDTH 600 0
DWIDTH 6 0
BBX 5 10 0 -2
BITMAP
20
20
70
A8
A8
A8
A8
70
20
20
ENDCHAR
STARTCHAR khacyrillic
ENCODING 1093
SWIDTH 600 0
DWIDTH 6 0
BBX 5 6 0 0
BITMAP
88
50
20
20
50
88
ENDCHAR
STARTCHAR tsecyrillic
ENCODING 1094
SWIDTH 600 0
DWIDTH 6 0
BBX 6 8 0 -2
BITMAP
88
88
88
88
88
FC
04
04
ENDCHAR
STARTCHAR checyrillic
ENCODING 1095
SWIDTH 600 0
DWIDTH 6 0
BBX 5 6 0 0
BITMAP
88
88
88
78
08
08
ENDCHAR
STARTCHAR shacyrillic
ENCODING 1096
SWIDTH 600 0
DWIDTH 6 0
BBX 5 6 0 0
BITMAP
A8
A8
A8
A8
A8
F8
ENDCHAR
STARTCHAR shchacyrillic
ENCODING 1097
SWIDTH 600 0
DWIDTH 6 0
BBX 6 8 0 -2
BITMAP
A8
A8
A8
A8
A8
FC
04
04
ENDCHAR
STARTCHAR hardsigncyrillic
ENCODING 1098
SWIDTH 600 0
DWIDTH 6 0
BBX 5 6 0 0
BITMAP
C0
40
70
48
48
70
ENDCHAR
STARTCHAR yericyrillic
ENCODING 1099
SWIDTH 600 0
DWIDTH 6 0
BBX 5 6 0 0
BITMAP
88
88
C8
A8
A8
C8
ENDCHAR
STARTCHAR softsigncyrillic
ENCODING 1100
SWIDTH 600 0
DWIDTH 6 0
BBX 5 6 0 0
BITMAP
80
80
F0
88
88
F0
ENDCHAR
STARTCHAR ereversedcyrillic
ENCODING 1101
SWIDTH 600 0
DWIDTH 6 0
BBX 5 6 0 0
BITMAP
70
88
38
08
88
70
ENDCHAR
STARTCHAR iucyrillic
ENCODING 1102
SWIDTH 600 0
DWIDTH 6 0
BBX 5 6 0 0
BITMAP
90
A8
E8
A8
A8
90
ENDCHAR
STARTCHAR iacyrillic
ENCODING 1103
SWIDTH 600 0
DWIDTH 6 0
BBX 5 6 0 0
BITMAP
78
88
88
78
48
88
ENDCHAR
STARTCHAR iocyrillic
ENCODING 1105
SWIDTH 600 0
DWIDTH 6 0
BBX 5 8 0 0
BITMAP
50
00
70
88
F8
80
88
70
ENDCHAR
STARTCHAR djecyrillic
ENCODING 1106
SWIDTH 600 0
DWIDTH 6 0
BBX 5 10 0 -2
BITMAP
40
40
F8
40
70
48
48
48
08
30
ENDCHAR
STARTCHAR gjecyrillic
ENCODING 1107
SWIDTH 600 0
DWIDTH 6 0
BBX 4 9 1 0
BITMAP
20
40
00
F0
80
80
80
80
80
ENDCHAR
STARTCHAR ecyrillic
ENCODING 1108
SWIDTH 600 0
DWIDTH 6 0
BBX 5 6 0 0
BITMAP
70
88
E0
80
88
70
ENDCHAR
STARTCHAR dzecyrillic
ENCODING 1109
SWIDTH 600 0
DWIDTH 6 0
BBX 5 6 0 0
BITMAP
70
80
70
08
88
70
ENDCHAR
STARTCHAR icyrillic
ENCODING 1110
SWIDTH 600 0
DWIDTH 6 0
BBX 1 8 2 0
BITMAP
80
00
80
80
80
80
80
80
ENDCHAR
STARTCHAR yicyrillic
ENCODING 1111
SWIDTH 600 0
DWIDTH 6 0
BBX 3 8 1 0
BITMAP
A0
00
40
40
40
40
40
40
ENDCHAR
STARTCHAR jecyrillic
ENCODING 1112
SWIDTH 600 0
DWIDTH 6 0
BBX 4 10 0 -2
BITMAP
10
00
10
10
10
10
10
10
90
60
ENDCHAR
STARTCHAR ljecyrillic
ENCODING 1113
SWIDTH 600 0
DWIDTH 6 0
BBX 6 6 0 0
BITMAP
30
50
58
54
54
98
ENDCHAR
STARTCHAR njecyrillic
ENCODING 1114
SWIDTH 600 0
DWIDTH 6 0
BBX 5 6 0 0
BITMAP
A0
A0
F0
A8
A8
B0
ENDCHAR
STARTCHAR tshecyrillic
ENCODING 1115
SWIDTH 600 0
DWIDTH 6 0
BBX 5 8 0 0
BITMAP
40
40
F0
40
70
48
48
48
ENDCHAR
STARTCHAR kjecyrillic
ENCODING 1116
SWIDTH 600 0
DWIDTH 6 0
BBX 5 9 0 0
BITMAP
10
20
00
88
90
A0
E0
90
88
ENDCHAR
STARTCHAR ushortcyrillic
ENCODING 1118
SWIDTH 600 0
DWIDTH 6 0
BBX 5 11 0 -2
BITMAP
50
20
00
88
88
88
88
88
78
08
F0
ENDCHAR
STARTCHAR dzhecyrillic
ENCODING 1119
SWIDTH 600 0
DWIDTH 6 0
BBX 5 8 0 -2
BITMAP
88
88
88
88
88
F8
20
20
ENDCHAR
STARTCHAR Gheupturncyrillic
ENCODING 1168
SWIDTH 600 0
DWIDTH 6 0
BBX 5 10 0 0
BITMAP
08
08
F8
80
80
80
80
80
80
80
ENDCHAR
STARTCHAR gheupturncyrillic
ENCODING 1169
SWIDTH 600 0
DWIDTH 6 0
BBX 4 8 1 0
BITMAP
10
10
F0
80
80
80
80
80
ENDCHAR
STARTCHAR endash
ENCODING 8211
SWIDTH 600 0
DWIDTH 6 0
BBX 3 1 0 2
BITMAP
E0
ENDCHAR
STARTCHAR emdash
ENCODING 8212
SWIDTH 600 0
DWIDTH 6 0
BBX 5 1 0 2
BITMAP
F8
ENDCHAR
STARTCHAR quoteleft
ENCODING 8216
SWIDTH 600 0
DWIDTH 6 0
BBX 2 4 2 4
BITMAP
40
80
C0
C0
ENDCHAR
STARTCHAR quoteright
ENCODING 8217
SWIDTH 600 0
DWIDTH 6 0
BBX 2 4 2 4
BITMAP
C0
C0
40
80
ENDCHAR
STARTCHAR quotesinglbase
ENCODING 8218
SWIDTH 600 0
DWIDTH 6 0
BBX 2 4 2 -2
BITMAP
C0
C0
40
80
ENDCHAR
STARTCHAR quotedblleft
ENCODING 8220
SWIDTH 600 0
DWIDTH 6 0
BBX 5 4 0 4
BITMAP
48
90
D8
D8
ENDCHAR
STARTCHAR quotedblright
ENCODING 8221
SWIDTH 600 0
DWIDTH 6 0
BBX 5 4 0 4
BITMAP
D8
D8
48
90
ENDCHAR
STARTCHAR quotedblbase
ENCODING 8222
SWIDTH 600 0
DWIDTH 6 0
BBX 5 4 0 -2
BITMAP
D8
D8
48
90
ENDCHAR
STARTCHAR dagger
ENCODING 8224
SWIDTH 600 0
DWIDTH 6 0
BBX 5 10 0 -2
BITMAP
20
20
F8
20
20
20
20
20
20
20
ENDCHAR
STARTCHAR daggerdbl
ENCODING 8225
SWIDTH 600 0
DWIDTH 6 0
BBX 5 10 0 -2
BITMAP
20
20
F8
20
20
20
20
F8
20
20
ENDCHAR
STARTCHAR bullet
ENCODING 8226
SWIDTH 600 0
DWIDTH 6 0
BBX 4 4 1 2
BITMAP
60
F0
F0
60
ENDCHAR
STARTCHAR ellipsis
ENCODING 8230
SWIDTH 600 0
DWIDTH 6 0
BBX 5 1 0 0
BITMAP
A8
ENDCHAR
STARTCHAR perthousand
ENCODING 8240
SWIDTH 600 0
DWIDTH 6 0
BBX 6 7 0 0
BITMAP
E0
A8
F0
20
7C
D4
7C
ENDCHAR
STARTCHAR guilsinglleft
ENCODING 8249
SWIDTH 600 0
DWIDTH 6 0
BBX 3 5 2 0
BITMAP
20
40
80
40
20
ENDCHAR
STARTCHAR guilsinglright
ENCODING 8250
SWIDTH 600 0
DWIDTH 6 0
BBX 3 5 1 0
BITMAP
80
40
20
40
80
ENDCHAR
STARTCHAR fraction
ENCODING 8260
SWIDTH 600 0
DWIDTH 6 0
BBX 6 10 0 -1
BITMAP
04
04
08
08
10
20
40
40
80
80
ENDCHAR
STARTCHAR Euro
ENCODING 8364
SWIDTH 600 0
DWIDTH 6 0
BBX 5 7 0 0
BITMAP
38
40
F0
40
F0
40
38
ENDCHAR
STARTCHAR numero
ENCODING 8470
SWIDTH 600 0
DWIDTH 6 0
BBX 6 8 0 0
BITMAP
A0
A0
A0
E0
E8
F4
A8
BC
ENDCHAR
STARTCHAR trademark
ENCODING 8482
SWIDTH 600 0
DWIDTH 6 0
BBX 6 4 0 4
BITMAP
F4
54
5C
54
ENDCHAR
STARTCHAR uni212F
ENCODING 8495
SWIDTH 600 0
DWIDTH 6 0
BBX 5 8 0 -2
BITMAP
88
88
88
88
88
F8
20
20
ENDCHAR
STARTCHAR Fturned
ENCODING 8498
SWIDTH 600 0
DWIDTH 6 0
BBX 5 11 0 -2
BITMAP
50
20
00
88
88
88
88
88
78
08
F0
ENDCHAR
STARTCHAR rightarrow.terminal.52
ENCODING 8594
SWIDTH 600 0
DWIDTH 6 0
BBX 6 5 0 0
BITMAP
10
08
FC
08
10
ENDCHAR
STARTCHAR downarrow.terminal.52
ENCODING 8595
SWIDTH 600 0
DWIDTH 6 0
BBX 5 6 1 0
BITMAP
20
20
20
A8
70
20
ENDCHAR
STARTCHAR partialdiff
ENCODING 8706
SWIDTH 600 0
DWIDTH 6 0
BBX 5 8 0 0
BITMAP
60
10
38
48
88
88
90
60
ENDCHAR
STARTCHAR Delta
ENCODING 8710
SWIDTH 600 0
DWIDTH 6 0
BBX 6 8 0 0
BITMAP
20
20
50
50
48
88
84
FC
ENDCHAR
STARTCHAR product
ENCODING 8719
SWIDTH 600 0
DWIDTH 6 0
BBX 6 10 0 -2
BITMAP
FC
48
48
48
48
48
48
48
48
48
ENDCHAR
STARTCHAR summation
ENCODING 8721
SWIDTH 600 0
DWIDTH 6 0
BBX 5 10 0 -2
BITMAP
F8
80
40
40
20
20
40
40
80
F8
ENDCHAR
STARTCHAR radical
ENCODING 8730
SWIDTH 600 0
DWIDTH 6 0
BBX 6 10 0 -2
BITMAP
0C
08
08
08
10
D0
50
50
20
20
ENDCHAR
STARTCHAR infinity
ENCODING 8734
SWIDTH 600 0
DWIDTH 6 0
BBX 5 3 0 1
BITMAP
D8
A8
D8
ENDCHAR
STARTCHAR integral
ENCODING 8747
SWIDTH 600 0
DWIDTH 6 0
BBX 5 11 0 -2
BITMAP
10
28
20
20
20
20
20
20
20
A0
40
ENDCHAR
STARTCHAR approxequal
ENCODING 8776
SWIDTH 600 0
DWIDTH 6 0
BBX 5 4 0 1
BITMAP
60
98
60
98
ENDCHAR
STARTCHAR notequal
ENCODING 8800
SWIDTH 600 0
DWIDTH 6 0
BBX 5 5 0 0
BITMAP
08
F8
20
F8
80
ENDCHAR
STARTCHAR lessequal
ENCODING 8804
SWIDTH 600 0
DWIDTH 6 0
BBX 5 7 0 0
BITMAP
08
30
C0
30
08
00
F8
ENDCHAR
STARTCHAR greaterequal
ENCODING 8805
SWIDTH 600 0
DWIDTH 6 0
BBX 5 7 0 0
BITMAP
80
60
18
60
80
00
F8
ENDCHAR
STARTCHAR H_T.terminal.100
ENCODING 9225
SWIDTH 600 0
DWIDTH 6 0
BBX 6 9 0 -1
BITMAP
A0
A0
E0
A0
A0
1C
08
08
08
ENDCHAR
STARTCHAR L_F.terminal.100
ENCODING 9226
SWIDTH 600 0
DWIDTH 6 0
BBX 6 9 0 -1
BITMAP
80
80
80
80
DC
10
1C
10
10
ENDCHAR
STARTCHAR V_T.terminal.100
ENCODING 9227
SWIDTH 600 0
DWIDTH 6 0
BBX 6 9 0 -1
BITMAP
A0
A0
40
40
00
1C
08
08
08
ENDCHAR
STARTCHAR F_F.terminal.100
ENCODING 9228
SWIDTH 600 0
DWIDTH 6 0
BBX 5 8 1 0
BITMAP
E0
80
C0
80
B8
20
30
20
ENDCHAR
STARTCHAR C_R.terminal.100
ENCODING 9229
SWIDTH 600 0
DWIDTH 6 0
BBX 6 8 0 0
BITMAP
60
80
80
60
18
14
18
14
ENDCHAR
STARTCHAR N_L.terminal.100
ENCODING 9252
SWIDTH 600 0
DWIDTH 6 0
BBX 6 9 0 -2
BITMAP
C8
A8
98
88
00
20
20
20
3C
ENDCHAR
STARTCHAR scanline5.terminal.100
ENCODING 9472
SWIDTH 600 0
DWIDTH 6 0
BBX 6 1 0 3
BITMAP
FC
ENDCHAR
STARTCHAR boxelement.vert.terminal.100
ENCODING 9474
SWIDTH 600 0
DWIDTH 6 0
BBX 1 9 3 -1
BITMAP
80
80
80
80
80
80
80
80
80
ENDCHAR
STARTCHAR boxelement.ul.terminal.100
ENCODING 9484
SWIDTH 600 0
DWIDTH 6 0
BBX 4 5 2 -1
BITMAP
F0
80
80
80
80
ENDCHAR
STARTCHAR boxelement.ur.terminal.100
ENCODING 9488
SWIDTH 600 0
DWIDTH 6 0
BBX 4 5 0 -1
BITMAP
F0
10
10
10
10
ENDCHAR
STARTCHAR boxelement.ll.terminal.100
ENCODING 9492
SWIDTH 600 0
DWIDTH 6 0
BBX 4 5 2 3
BITMAP
80
80
80
80
F0
ENDCHAR
STARTCHAR boxelement.lr.terminal.100
ENCODING 9496
SWIDTH 600 0
DWIDTH 6 0
BBX 3 5 0 3
BITMAP
20
20
20
20
E0
ENDCHAR
STARTCHAR boxelement.ml.terminal.100
ENCODING 9500
SWIDTH 600 0
DWIDTH 6 0
BBX 4 9 2 -1
BITMAP
80
80
80
80
F0
80
80
80
80
ENDCHAR
STARTCHAR boxelement.mr.terminal.100
ENCODING 9508
SWIDTH 600 0
DWIDTH 6 0
BBX 4 9 0 -1
BITMAP
10
10
10
10
F0
10
10
10
10
ENDCHAR
STARTCHAR boxelement.mt.terminal.100
ENCODING 9516
SWIDTH 600 0
DWIDTH 6 0
BBX 6 5 0 -1
BITMAP
FC
10
10
10
10
ENDCHAR
STARTCHAR boxelement.mb.terminal.100
ENCODING 9524
SWIDTH 600 0
DWIDTH 6 0
BBX 6 5 0 3
BITMAP
10
10
10
10
FC
ENDCHAR
STARTCHAR boxelement.cross.terminal.100
ENCODING 9532
SWIDTH 600 0
DWIDTH 6 0
BBX 6 9 0 -1
BITMAP
10
10
10
10
FC
10
10
10
10
ENDCHAR
STARTCHAR block.black.terminal.52
ENCODING 9608
SWIDTH 600 0
DWIDTH 6 0
BBX 6 11 0 -3
BITMAP
FC
FC
FC
FC
FC
FC
FC
FC
FC
FC
FC
ENDCHAR
STARTCHAR checkerboard.terminal.100
ENCODING 9618
SWIDTH 500 0
DWIDTH 5 0
BBX 5 8 0 -1
BITMAP
50
A8
50
A8
50
A8
50
A8
ENDCHAR
STARTCHAR lozenge.terminal.100
ENCODING 9670
SWIDTH 600 0
DWIDTH 6 0
BBX 7 7 -1 0
BITMAP
10
38
7C
FE
7C
38
10
ENDCHAR
STARTCHAR lozenge
ENCODING 9674
SWIDTH 600 0
DWIDTH 6 0
BBX 5 9 0 -1
BITMAP
20
20
50
50
88
50
50
20
20
ENDCHAR
STARTCHAR apple
ENCODING 63743
SWIDTH 600 0
DWIDTH 6 0
BBX 5 8 0 0
BITMAP
10
20
50
F8
F0
F0
F8
70
ENDCHAR
STARTCHAR fi
ENCODING 64257
SWIDTH 600 0
DWIDTH 6 0
BBX 5 8 0 0
BITMAP
38
40
40
F8
48
48
48
48
ENDCHAR
STARTCHAR fl
ENCODING 64258
SWIDTH 600 0
DWIDTH 6 0
BBX 5 8 0 0
BITMAP
38
48
48
E8
48
48
48
48
ENDCHAR
STARTCHAR .notdef
ENCODING -1
SWIDTH 600 0
DWIDTH 6 0
BBX 4 8 1 0
BITMAP
F0
90
90
90
90
90
90
F0
ENDCHAR
ENDFONT
